<svg xmlns="http://www.w3.org/2000/svg" viewBox="0 0 1080 1080" font-family="Helvetica, Arial, sans-serif">
  <defs>
    <filter id="ps-grain" x="0" y="0" width="100%" height="100%">
      <feTurbulence type="fractalNoise" baseFrequency="0.9" numOctaves="3" seed="7"/>
      <feColorMatrix type="saturate" values="0"/>
      <feComponentTransfer><feFuncA type="linear" slope="0.10"/></feComponentTransfer>
    </filter>
    <marker id="ps-arrow" viewBox="0 0 12 10" refX="11" refY="5"
            markerWidth="5" markerHeight="4.5" orient="auto-start-reverse">
      <polygon points="0 0, 12 5, 0 10" fill="#c2622f"/>
    </marker>
  </defs>

  <rect width="1080" height="1080" fill="#f4e3c2"/>
  <g stroke="#c2622f" stroke-width="12" stroke-linecap="round" marker-end="url(#ps-arrow)">
    <line x1="540" y1="287" x2="540" y2="212"/>
    <line x1="657" y1="335" x2="710" y2="282"/>
    <line x1="705" y1="452" x2="780" y2="452"/>
    <line x1="657" y1="569" x2="710" y2="622"/>
    <line x1="540" y1="617" x2="540" y2="692"/>
    <line x1="423" y1="569" x2="370" y2="622"/>
    <line x1="375" y1="452" x2="300" y2="452"/>
    <line x1="423" y1="335" x2="370" y2="282"/>
  </g>
  <g font-size="30" font-weight="bold" fill="#1d4030" text-anchor="middle">
    <g transform="translate(492 86)">
      <path d="M0 0 h74 l22 22 v90 h-96 z" fill="#faf0d8" stroke="#1d4030" stroke-width="6"/>
      <path d="M74 0 v22 h22" fill="none" stroke="#1d4030" stroke-width="6"/>
      <g stroke="#c2622f" stroke-width="5" stroke-linecap="round">
        <line x1="19" y1="54" x2="74" y2="54"/><line x1="19" y1="72" x2="62" y2="72"/>
        <line x1="19" y1="90" x2="77" y2="90"/>
      </g>
      <text x="48" y="150">Pydantic</text>
    </g>
    <g transform="translate(704 174)">
      <path d="M0 0 h74 l22 22 v90 h-96 z" fill="#faf0d8" stroke="#1d4030" stroke-width="6"/>
      <path d="M74 0 v22 h22" fill="none" stroke="#1d4030" stroke-width="6"/>
      <g stroke="#c2622f" stroke-width="5" stroke-linecap="round">
        <line x1="19" y1="54" x2="74" y2="54"/><line x1="19" y1="72" x2="62" y2="72"/>
        <line x1="19" y1="90" x2="77" y2="90"/>
      </g>
      <text x="48" y="150">SQL</text>
    </g>
    <g transform="translate(792 386)">
      <path d="M0 0 h74 l22 22 v90 h-96 z" fill="#faf0d8" stroke="#1d4030" stroke-width="6"/>
      <path d="M74 0 v22 h22" fill="none" stroke="#1d4030" stroke-width="6"/>
      <g stroke="#c2622f" stroke-width="5" stroke-linecap="round">
        <line x1="19" y1="54" x2="74" y2="54"/><line x1="19" y1="72" x2="62" y2="72"/>
        <line x1="19" y1="90" x2="77" y2="90"/>
      </g>
      <text x="48" y="150">TypeScript</text>
    </g>
    <g transform="translate(704 598)">
      <path d="M0 0 h74 l22 22 v90 h-96 z" fill="#faf0d8" stroke="#1d4030" stroke-width="6"/>
      <path d="M74 0 v22 h22" fill="none" stroke="#1d4030" stroke-width="6"/>
      <g stroke="#c2622f" stroke-width="5" stroke-linecap="round">
        <line x1="19" y1="54" x2="74" y2="54"/><line x1="19" y1="72" x2="62" y2="72"/>
        <line x1="19" y1="90" x2="77" y2="90"/>
      </g>
      <text x="48" y="150">SHACL</text>
    </g>
    <g transform="translate(492 686)">
      <path d="M0 0 h74 l22 22 v90 h-96 z" fill="#faf0d8" stroke="#1d4030" stroke-width="6"/>
      <path d="M74 0 v22 h22" fill="none" stroke="#1d4030" stroke-width="6"/>
      <g stroke="#c2622f" stroke-width="5" stroke-linecap="round">
        <line x1="19" y1="54" x2="74" y2="54"/><line x1="19" y1="72" x2="62" y2="72"/>
        <line x1="19" y1="90" x2="77" y2="90"/>
      </g>
      <text x="48" y="150">Protobuf</text>
    </g>
    <g transform="translate(280 598)">
      <path d="M0 0 h74 l22 22 v90 h-96 z" fill="#faf0d8" stroke="#1d4030" stroke-width="6"/>
      <path d="M74 0 v22 h22" fill="none" stroke="#1d4030" stroke-width="6"/>
      <g stroke="#c2622f" stroke-width="5" stroke-linecap="round">
        <line x1="19" y1="54" x2="74" y2="54"/><line x1="19" y1="72" x2="62" y2="72"/>
        <line x1="19" y1="90" x2="77" y2="90"/>
      </g>
      <text x="48" y="150">GraphDB</text>
    </g>
    <g transform="translate(192 386)">
      <path d="M0 0 h74 l22 22 v90 h-96 z" fill="#faf0d8" stroke="#1d4030" stroke-width="6"/>
      <path d="M74 0 v22 h22" fill="none" stroke="#1d4030" stroke-width="6"/>
      <g stroke="#c2622f" stroke-width="5" stroke-linecap="round">
        <line x1="19" y1="54" x2="74" y2="54"/><line x1="19" y1="72" x2="62" y2="72"/>
        <line x1="19" y1="90" x2="77" y2="90"/>
      </g>
      <text x="48" y="150">Scala</text>
    </g>
    <g transform="translate(280 174)">
      <path d="M0 0 h74 l22 22 v90 h-96 z" fill="#faf0d8" stroke="#1d4030" stroke-width="6"/>
      <path d="M74 0 v22 h22" fill="none" stroke="#1d4030" stroke-width="6"/>
      <g stroke="#c2622f" stroke-width="5" stroke-linecap="round">
        <line x1="19" y1="54" x2="74" y2="54"/><line x1="19" y1="72" x2="62" y2="72"/>
        <line x1="19" y1="90" x2="77" y2="90"/>
      </g>
      <text x="48" y="150">Java</text>
    </g>
  </g>
  <g>
    <path d="M444 348 h128 l38 38 v180 h-166 z" fill="#faf0d8" stroke="#1d4030" stroke-width="10"/>
    <path d="M572 348 v38 h38" fill="none" stroke="#1d4030" stroke-width="10"/>
    <g stroke="#c2622f" stroke-width="8" stroke-linecap="round">
      <line x1="474" y1="420" x2="580" y2="420"/><line x1="474" y1="452" x2="552" y2="452"/>
      <line x1="474" y1="484" x2="574" y2="484"/>
    </g>
    <text x="527" y="612" text-anchor="middle" font-size="36" font-weight="bold" fill="#1d4030">schema.yaml</text>
  </g>


  <rect x="9" y="9" width="1062" height="1062" fill="none" stroke="#1d4030" stroke-width="18"/>
  <rect width="1080" height="1080" filter="url(#ps-grain)" opacity="0.6"/>
</svg>
